  0
SECTION
  2
BLOCKS
  0
ENDSEC
  0
SECTION
  2
ENTITIES
  0
LINE
  8
0
 10
44.4606
 20
196.127
 11
44.3429
 21
196.743
  0
LINE
  8
0
 10
44.3429
 20
196.743
 11
44.1489
 21
197.341
  0
LINE
  8
0
 10
44.1489
 20
197.341
 11
43.8815
 21
197.909
  0
LINE
  8
0
 10
43.8815
 20
197.909
 11
43.5451
 21
198.439
  0
LINE
  8
0
 10
43.5451
 20
198.439
 11
43.1448
 21
198.923
  0
LINE
  8
0
 10
43.1448
 20
198.923
 11
42.6871
 21
199.353
  0
LINE
  8
0
 10
42.6871
 20
199.353
 11
42.1791
 21
199.722
  0
LINE
  8
0
 10
42.1791
 20
199.722
 11
41.6289
 21
200.024
  0
LINE
  8
0
 10
41.6289
 20
200.024
 11
41.0451
 21
200.255
  0
LINE
  8
0
 10
41.0451
 20
200.255
 11
40.4369
 21
200.411
  0
LINE
  8
0
 10
40.4369
 20
200.411
 11
39.8139
 21
200.49
  0
LINE
  8
0
 10
39.8139
 20
200.49
 11
-39.8139
 21
200.49
  0
LINE
  8
0
 10
-39.8139
 20
200.49
 11
-40.4369
 21
200.411
  0
LINE
  8
0
 10
-40.4369
 20
200.411
 11
-41.0451
 21
200.255
  0
LINE
  8
0
 10
-41.0451
 20
200.255
 11
-41.6289
 21
200.024
  0
LINE
  8
0
 10
-41.6289
 20
200.024
 11
-42.1791
 21
199.722
  0
LINE
  8
0
 10
-42.1791
 20
199.722
 11
-42.6871
 21
199.353
  0
LINE
  8
0
 10
-42.6871
 20
199.353
 11
-43.1448
 21
198.923
  0
LINE
  8
0
 10
-43.1448
 20
198.923
 11
-43.5451
 21
198.439
  0
LINE
  8
0
 10
-43.5451
 20
198.439
 11
-43.8815
 21
197.909
  0
LINE
  8
0
 10
-43.8815
 20
197.909
 11
-44.1489
 21
197.341
  0
LINE
  8
0
 10
-44.1489
 20
197.341
 11
-44.3429
 21
196.743
  0
LINE
  8
0
 10
-44.3429
 20
196.743
 11
-44.4606
 21
196.127
  0
LINE
  8
0
 10
-44.4606
 20
196.127
 11
-44.5
 21
195.5
  0
LINE
  8
0
 10
-44.5
 20
195.5
 11
-44.5
 21
38.5
  0
LINE
  8
0
 10
-44.5
 20
38.5
 11
-44.4606
 21
37.8733
  0
LINE
  8
0
 10
-44.4606
 20
37.8733
 11
-44.3429
 21
37.2566
  0
LINE
  8
0
 10
-44.3429
 20
37.2566
 11
-44.1489
 21
36.6594
  0
LINE
  8
0
 10
-44.1489
 20
36.6594
 11
-43.8815
 21
36.0912
  0
LINE
  8
0
 10
-43.8815
 20
36.0912
 11
-43.5451
 21
35.5611
  0
LINE
  8
0
 10
-43.5451
 20
35.5611
 11
-43.1448
 21
35.0773
  0
LINE
  8
0
 10
-43.1448
 20
35.0773
 11
-42.6871
 21
34.6474
  0
LINE
  8
0
 10
-42.6871
 20
34.6474
 11
-42.1791
 21
34.2784
  0
LINE
  8
0
 10
-42.1791
 20
34.2784
 11
-41.6289
 21
33.9759
  0
LINE
  8
0
 10
-41.6289
 20
33.9759
 11
-41.0451
 21
33.7447
  0
LINE
  8
0
 10
-41.0451
 20
33.7447
 11
-40.4369
 21
33.5886
  0
LINE
  8
0
 10
-40.4369
 20
33.5886
 11
-39.8139
 21
33.5099
  0
LINE
  8
0
 10
-39.8139
 20
33.5099
 11
39.8139
 21
33.5099
  0
LINE
  8
0
 10
39.8139
 20
33.5099
 11
40.4369
 21
33.5886
  0
LINE
  8
0
 10
40.4369
 20
33.5886
 11
41.0451
 21
33.7447
  0
LINE
  8
0
 10
41.0451
 20
33.7447
 11
41.6289
 21
33.9759
  0
LINE
  8
0
 10
41.6289
 20
33.9759
 11
42.1791
 21
34.2784
  0
LINE
  8
0
 10
42.1791
 20
34.2784
 11
42.6871
 21
34.6474
  0
LINE
  8
0
 10
42.6871
 20
34.6474
 11
43.1448
 21
35.0773
  0
LINE
  8
0
 10
43.1448
 20
35.0773
 11
43.5451
 21
35.5611
  0
LINE
  8
0
 10
43.5451
 20
35.5611
 11
43.8815
 21
36.0912
  0
LINE
  8
0
 10
43.8815
 20
36.0912
 11
44.1489
 21
36.6594
  0
LINE
  8
0
 10
44.1489
 20
36.6594
 11
44.3429
 21
37.2566
  0
LINE
  8
0
 10
44.3429
 20
37.2566
 11
44.4606
 21
37.8733
  0
LINE
  8
0
 10
44.4606
 20
37.8733
 11
44.5
 21
38.5
  0
LINE
  8
0
 10
44.5
 20
38.5
 11
44.5
 21
195.5
  0
LINE
  8
0
 10
44.5
 20
195.5
 11
44.4606
 21
196.127
  0
LINE
  8
0
 10
-22.6884
 20
52.5059
 11
-23.0621
 21
52.5531
  0
LINE
  8
0
 10
-23.0621
 20
52.5531
 11
-23.427
 21
52.6468
  0
LINE
  8
0
 10
-23.427
 20
52.6468
 11
-23.7773
 21
52.7855
  0
LINE
  8
0
 10
-23.7773
 20
52.7855
 11
-24.1075
 21
52.967
  0
LINE
  8
0
 10
-24.1075
 20
52.967
 11
-24.4123
 21
53.1885
  0
LINE
  8
0
 10
-24.4123
 20
53.1885
 11
-24.6869
 21
53.4464
  0
LINE
  8
0
 10
-24.6869
 20
53.4464
 11
-24.927
 21
53.7366
  0
LINE
  8
0
 10
-24.927
 20
53.7366
 11
-25.1289
 21
54.0547
  0
LINE
  8
0
 10
-25.1289
 20
54.0547
 11
-25.2893
 21
54.3956
  0
LINE
  8
0
 10
-25.2893
 20
54.3956
 11
-25.4057
 21
54.7539
  0
LINE
  8
0
 10
-25.4057
 20
54.7539
 11
-25.4763
 21
55.124
  0
LINE
  8
0
 10
-25.4763
 20
55.124
 11
-25.5
 21
55.5
  0
LINE
  8
0
 10
-25.5
 20
55.5
 11
-25.4763
 21
55.876
  0
LINE
  8
0
 10
-25.4763
 20
55.876
 11
-25.4057
 21
56.2461
  0
LINE
  8
0
 10
-25.4057
 20
56.2461
 11
-25.2893
 21
56.6044
  0
LINE
  8
0
 10
-25.2893
 20
56.6044
 11
-25.1289
 21
56.9453
  0
LINE
  8
0
 10
-25.1289
 20
56.9453
 11
-24.927
 21
57.2634
  0
LINE
  8
0
 10
-24.927
 20
57.2634
 11
-24.6869
 21
57.5536
  0
LINE
  8
0
 10
-24.6869
 20
57.5536
 11
-24.4123
 21
57.8116
  0
LINE
  8
0
 10
-24.4123
 20
57.8116
 11
-24.1075
 21
58.033
  0
LINE
  8
0
 10
-24.1075
 20
58.033
 11
-23.7773
 21
58.2145
  0
LINE
  8
0
 10
-23.7773
 20
58.2145
 11
-23.427
 21
58.3532
  0
LINE
  8
0
 10
-23.427
 20
58.3532
 11
-23.0621
 21
58.4469
  0
LINE
  8
0
 10
-23.0621
 20
58.4469
 11
-22.6884
 21
58.4941
  0
LINE
  8
0
 10
-22.6884
 20
58.4941
 11
-22.3116
 21
58.4941
  0
LINE
  8
0
 10
-22.3116
 20
58.4941
 11
-21.9379
 21
58.4469
  0
LINE
  8
0
 10
-21.9379
 20
58.4469
 11
-21.5729
 21
58.3532
  0
LINE
  8
0
 10
-21.5729
 20
58.3532
 11
-21.2227
 21
58.2145
  0
LINE
  8
0
 10
-21.2227
 20
58.2145
 11
-20.8925
 21
58.033
  0
LINE
  8
0
 10
-20.8925
 20
58.033
 11
-20.5877
 21
57.8116
  0
LINE
  8
0
 10
-20.5877
 20
57.8116
 11
-20.3131
 21
57.5536
  0
LINE
  8
0
 10
-20.3131
 20
57.5536
 11
-20.0729
 21
57.2634
  0
LINE
  8
0
 10
-20.0729
 20
57.2634
 11
-19.8711
 21
56.9453
  0
LINE
  8
0
 10
-19.8711
 20
56.9453
 11
-19.7107
 21
56.6044
  0
LINE
  8
0
 10
-19.7107
 20
56.6044
 11
-19.5942
 21
56.2461
  0
LINE
  8
0
 10
-19.5942
 20
56.2461
 11
-19.5237
 21
55.876
  0
LINE
  8
0
 10
-19.5237
 20
55.876
 11
-19.5
 21
55.5
  0
LINE
  8
0
 10
-19.5
 20
55.5
 11
-19.5237
 21
55.124
  0
LINE
  8
0
 10
-19.5237
 20
55.124
 11
-19.5942
 21
54.7539
  0
LINE
  8
0
 10
-19.5942
 20
54.7539
 11
-19.7107
 21
54.3956
  0
LINE
  8
0
 10
-19.7107
 20
54.3956
 11
-19.8711
 21
54.0547
  0
LINE
  8
0
 10
-19.8711
 20
54.0547
 11
-20.0729
 21
53.7366
  0
LINE
  8
0
 10
-20.0729
 20
53.7366
 11
-20.3131
 21
53.4464
  0
LINE
  8
0
 10
-20.3131
 20
53.4464
 11
-20.5877
 21
53.1885
  0
LINE
  8
0
 10
-20.5877
 20
53.1885
 11
-20.8925
 21
52.967
  0
LINE
  8
0
 10
-20.8925
 20
52.967
 11
-21.2227
 21
52.7855
  0
LINE
  8
0
 10
-21.2227
 20
52.7855
 11
-21.5729
 21
52.6468
  0
LINE
  8
0
 10
-21.5729
 20
52.6468
 11
-21.9379
 21
52.5531
  0
LINE
  8
0
 10
-21.9379
 20
52.5531
 11
-22.3116
 21
52.5059
  0
LINE
  8
0
 10
-22.3116
 20
52.5059
 11
-22.6884
 21
52.5059
  0
ENDSEC
  0
SECTION
  2
OBJECTS
  0
DICTIONARY
  0
ENDSEC
  0
EOF
