<?xml version="1.0" standalone="no"?>
<!DOCTYPE svg PUBLIC "-//W3C//DTD SVG 1.1//EN" "http://www.w3.org/Graphics/SVG/1.1/DTD/svg11.dtd">
<svg width="90mm" height="168mm" viewBox="-45 -201 90 168" xmlns="http://www.w3.org/2000/svg" version="1.1">
<title>OpenSCAD Model</title>
<path d="
M 44.4606,-196.127 L 44.3429,-196.743 L 44.1489,-197.341 L 43.8815,-197.909 L 43.5451,-198.439 L 43.1448,-198.923
 L 42.6871,-199.353 L 42.1791,-199.722 L 41.6289,-200.024 L 41.0451,-200.255 L 40.4369,-200.411 L 39.8139,-200.49
 L -39.8139,-200.49 L -40.4369,-200.411 L -41.0451,-200.255 L -41.6289,-200.024 L -42.1791,-199.722 L -42.6871,-199.353
 L -43.1448,-198.923 L -43.5451,-198.439 L -43.8815,-197.909 L -44.1489,-197.341 L -44.3429,-196.743 L -44.4606,-196.127
 L -44.5,-195.5 L -44.5,-38.5 L -44.4606,-37.8733 L -44.3429,-37.2566 L -44.1489,-36.6594 L -43.8815,-36.0912
 L -43.5451,-35.5611 L -43.1448,-35.0773 L -42.6871,-34.6474 L -42.1791,-34.2784 L -41.6289,-33.9759 L -41.0451,-33.7447
 L -40.4369,-33.5886 L -39.8139,-33.5099 L 39.8139,-33.5099 L 40.4369,-33.5886 L 41.0451,-33.7447 L 41.6289,-33.9759
 L 42.1791,-34.2784 L 42.6871,-34.6474 L 43.1448,-35.0773 L 43.5451,-35.5611 L 43.8815,-36.0912 L 44.1489,-36.6594
 L 44.3429,-37.2566 L 44.4606,-37.8733 L 44.5,-38.5 L 44.5,-195.5 z
M -22.6884,-52.5059 L -23.0621,-52.5531 L -23.427,-52.6468 L -23.7773,-52.7855 L -24.1075,-52.967 L -24.4123,-53.1885
 L -24.6869,-53.4464 L -24.927,-53.7366 L -25.1289,-54.0547 L -25.2893,-54.3956 L -25.4057,-54.7539 L -25.4763,-55.124
 L -25.5,-55.5 L -25.4763,-55.876 L -25.4057,-56.2461 L -25.2893,-56.6044 L -25.1289,-56.9453 L -24.927,-57.2634
 L -24.6869,-57.5536 L -24.4123,-57.8116 L -24.1075,-58.033 L -23.7773,-58.2145 L -23.427,-58.3532 L -23.0621,-58.4469
 L -22.6884,-58.4941 L -22.3116,-58.4941 L -21.9379,-58.4469 L -21.5729,-58.3532 L -21.2227,-58.2145 L -20.8925,-58.033
 L -20.5877,-57.8116 L -20.3131,-57.5536 L -20.0729,-57.2634 L -19.8711,-56.9453 L -19.7107,-56.6044 L -19.5942,-56.2461
 L -19.5237,-55.876 L -19.5,-55.5 L -19.5237,-55.124 L -19.5942,-54.7539 L -19.7107,-54.3956 L -19.8711,-54.0547
 L -20.0729,-53.7366 L -20.3131,-53.4464 L -20.5877,-53.1885 L -20.8925,-52.967 L -21.2227,-52.7855 L -21.5729,-52.6468
 L -21.9379,-52.5531 L -22.3116,-52.5059 z
" stroke="black" fill="lightgray" stroke-width="0.5"/>
</svg>
